<svg width="131" height="40" fill="none" xmlns="http://www.w3.org/2000/svg"><rect x=".429" width="130" height="40" rx="4" fill="#E5ECF4"/><path fill-rule="evenodd" clip-rule="evenodd" d="M42.943 30.536c-.324.252-.81.378-1.457.378a3.23 3.23 0 0 1-1.286-.257 2.875 2.875 0 0 1-1.043-.764 3.722 3.722 0 0 1-.7-1.257c-.171-.5-.257-1.084-.257-1.75v-2.343c0-.648.093-1.222.279-1.722.185-.5.443-.921.771-1.264a3.208 3.208 0 0 1 1.179-.779 4.18 4.18 0 0 1 1.514-.264c.572 0 1.081.093 1.529.279.447.185.828.443 1.142.771.315.329.553.714.715 1.157.162.443.243.917.243 1.422v.171h-1.886v-.171c0-.6-.155-1.055-.464-1.365-.31-.31-.746-.464-1.308-.464-.533 0-.97.179-1.314.536-.343.357-.514.969-.514 1.836V26.8c0 1.543.629 2.314 1.886 2.314.561 0 .988-.15 1.278-.45.29-.3.436-.702.436-1.207h-2.4v-1.8h4.286v5.057h-1.715V29.6H43.6a1.862 1.862 0 0 1-.657.936Zm8.498.135a4.024 4.024 0 0 1-1.393.243 4 4 0 0 1-1.393-.243 3.57 3.57 0 0 1-1.178-.707 3.332 3.332 0 0 1-.815-1.143c-.2-.452-.3-.974-.3-1.564v-.171c0-.581.1-1.098.3-1.55.2-.453.472-.836.815-1.15a3.51 3.51 0 0 1 1.178-.715 4.025 4.025 0 0 1 1.393-.243c.486 0 .95.081 1.393.243.443.162.836.4 1.179.715.342.314.614.697.814 1.15.2.452.3.969.3 1.55v.171c0 .59-.1 1.112-.3 1.564-.2.453-.472.834-.814 1.143a3.57 3.57 0 0 1-1.179.707ZM50.048 29.2c-.257 0-.5-.043-.728-.129a1.767 1.767 0 0 1-.6-.371 1.754 1.754 0 0 1-.408-.593c-.1-.233-.15-.498-.15-.793v-.286c0-.295.05-.56.15-.792a1.743 1.743 0 0 1 1.008-.965c.228-.085.471-.128.728-.128s.5.043.729.128c.228.086.428.21.6.372.171.162.307.36.407.593.1.233.15.497.15.792v.286c0 .295-.05.56-.15.793-.1.233-.236.431-.407.593a1.767 1.767 0 0 1-.6.371 2.058 2.058 0 0 1-.729.129Zm9.498 1.471a4.024 4.024 0 0 1-1.393.243 4 4 0 0 1-1.393-.243 3.57 3.57 0 0 1-1.178-.707 3.332 3.332 0 0 1-.815-1.143c-.2-.452-.3-.974-.3-1.564v-.171c0-.581.1-1.098.3-1.55.2-.453.472-.836.815-1.15a3.51 3.51 0 0 1 1.178-.715 4.025 4.025 0 0 1 1.393-.243c.486 0 .95.081 1.393.243.443.162.836.4 1.179.715.343.314.614.697.814 1.15.2.452.3.969.3 1.55v.171c0 .59-.1 1.112-.3 1.564-.2.453-.471.834-.814 1.143a3.57 3.57 0 0 1-1.179.707ZM58.153 29.2c-.257 0-.5-.043-.728-.129a1.767 1.767 0 0 1-.6-.371 1.754 1.754 0 0 1-.408-.593c-.1-.233-.15-.498-.15-.793v-.286c0-.295.05-.56.15-.792a1.743 1.743 0 0 1 1.008-.965c.228-.085.471-.128.728-.128s.5.043.729.128c.228.086.428.21.6.372.171.162.307.36.407.593.1.233.15.497.15.792v.286c0 .295-.05.56-.15.793-.1.233-.236.431-.407.593a1.767 1.767 0 0 1-.6.371 2.058 2.058 0 0 1-.729.129Zm11.398 4.057c-.204.21-.469.314-.793.314h-4.771v-1.714h3.686c.257 0 .385-.143.385-.429v-1.742h-.257a2.722 2.722 0 0 1-.278.464 1.63 1.63 0 0 1-.429.393 2.236 2.236 0 0 1-.628.271c-.243.067-.536.1-.88.1-.437 0-.844-.078-1.22-.236a2.748 2.748 0 0 1-.986-.7c-.281-.31-.5-.688-.657-1.135-.157-.448-.236-.962-.236-1.543v-.257c0-.572.083-1.081.25-1.529a3.34 3.34 0 0 1 .686-1.136c.29-.31.628-.545 1.014-.707a3.124 3.124 0 0 1 1.221-.243c.572 0 1.024.108 1.358.322.333.214.595.517.785.907h.257v-1.029h1.8v8.829c0 .324-.102.59-.307.8ZM66.173 29.2c-.562 0-1.017-.174-1.365-.522-.347-.347-.521-.821-.521-1.421v-.171c0-.6.174-1.074.521-1.422.348-.348.803-.521 1.365-.521.561 0 1.016.178 1.364.535.347.358.521.827.521 1.408v.171c0 .581-.174 1.05-.521 1.407-.348.357-.803.536-1.364.536Zm11.49-.2v1.714h-6.6V29h2.486v-6.572h-2.4v-1.714h4.2V29h2.314Zm4.877 1.914c.467 0 .874-.052 1.221-.157.348-.105.643-.238.886-.4a2.5 2.5 0 0 0 .593-.536c.152-.195.271-.383.357-.564l-1.543-.857a1.41 1.41 0 0 1-.514.564c-.238.157-.581.236-1.029.236-.228 0-.445-.036-.65-.107a1.767 1.767 0 0 1-.542-.3 1.392 1.392 0 0 1-.522-1.036h5.2V26.8c0-.372-.067-.755-.2-1.15a3.203 3.203 0 0 0-.628-1.086 3.39 3.39 0 0 0-1.086-.814c-.438-.214-.962-.322-1.572-.322-.495 0-.96.088-1.392.265a3.37 3.37 0 0 0-1.9 1.879 3.84 3.84 0 0 0-.279 1.485v.086c0 .59.088 1.119.264 1.585.177.467.424.862.743 1.186.32.324.698.572 1.136.743.438.171.924.257 1.457.257Zm-1.714-4.7h3.343a1.27 1.27 0 0 0-.536-.828c-.3-.22-.679-.329-1.136-.329-.457 0-.828.117-1.114.35-.286.233-.472.502-.557.807Zm8.29 4.5v-3.771h2.03c.513 0 .961-.086 1.342-.257.38-.172.698-.398.95-.679.252-.28.443-.6.571-.957.129-.357.193-.722.193-1.093v-.343c0-.362-.064-.716-.193-1.064a2.755 2.755 0 0 0-.571-.929 2.82 2.82 0 0 0-.95-.657c-.381-.166-.829-.25-1.343-.25h-3.914v10h1.886Zm0-5.571h1.843c.42 0 .75-.115.993-.343.243-.229.365-.524.365-.886v-.171c0-.362-.122-.657-.365-.886-.243-.229-.574-.343-.993-.343h-1.843v2.629Zm12.863 5.571V29h-2.314v-8.286h-4.2v1.714h2.4V29h-2.486v1.714h6.6Zm5.333-.078c-.342.185-.742.278-1.2.278-.428 0-.831-.08-1.207-.243a2.862 2.862 0 0 1-.993-.714 3.5 3.5 0 0 1-.678-1.143c-.167-.448-.25-.957-.25-1.528v-.229c0-.562.081-1.067.243-1.514.162-.448.381-.829.657-1.143a2.83 2.83 0 0 1 .964-.722c.367-.166.76-.25 1.179-.25.504 0 .912.086 1.221.258.31.171.555.438.736.8h.257v-.858h1.8v4.943c0 .286.129.429.386.429h.271v1.714h-1.228c-.324 0-.589-.095-.793-.286a.967.967 0 0 1-.307-.742h-.258c-.19.447-.457.764-.8.95Zm-.8-1.436c-.523 0-.942-.174-1.257-.522-.314-.347-.471-.821-.471-1.421v-.171c0-.6.157-1.074.471-1.422.315-.348.734-.521 1.257-.521.524 0 .943.174 1.258.521.314.348.471.822.471 1.422v.171c0 .6-.157 1.074-.471 1.421-.315.348-.734.522-1.258.522Zm11.413 4.057c-.205.21-.469.314-.793.314h-4.214v-1.714h3.128c.257 0 .386-.143.386-.429v-1.742h-.257c-.315.819-.991 1.228-2.029 1.228-.352 0-.681-.057-.986-.171a2.146 2.146 0 0 1-.8-.529 2.482 2.482 0 0 1-.535-.893c-.129-.357-.193-.778-.193-1.264v-4.429h1.8v4.058c0 .504.119.897.357 1.178.238.281.595.422 1.071.422.543 0 .941-.174 1.193-.522.253-.348.379-.821.379-1.421v-3.715h1.8v8.829a1.1 1.1 0 0 1-.307.8Zm-61.879-23.6c.09 0 .178-.017.261-.053a.72.72 0 0 0 .218-.143.673.673 0 0 0 .2-.482.673.673 0 0 0-.2-.482.72.72 0 0 0-.218-.143.655.655 0 0 0-.525 0 .734.734 0 0 0-.214.143.673.673 0 0 0-.2.482.673.673 0 0 0 .678.678Zm-15.788 3.825c-.162.127-.405.19-.729.19a1.61 1.61 0 0 1-.643-.129 1.438 1.438 0 0 1-.521-.382 1.86 1.86 0 0 1-.35-.629 2.699 2.699 0 0 1-.129-.875v-1.171c0-.324.047-.61.14-.86.092-.25.22-.461.385-.633a1.61 1.61 0 0 1 .59-.39 2.09 2.09 0 0 1 .757-.131c.285 0 .54.046.764.139a1.642 1.642 0 0 1 .929.964c.08.222.12.459.12.711v.086h-.942v-.086c0-.3-.077-.527-.232-.682-.155-.155-.373-.232-.654-.232a.871.871 0 0 0-.657.268c-.171.178-.257.484-.257.917v1.058c0 .771.314 1.157.943 1.157.28 0 .494-.075.64-.225.145-.15.217-.352.217-.604h-1.2v-.9h2.143v2.529h-.857v-.557h-.129a.93.93 0 0 1-.328.467Zm4.199.111a2.127 2.127 0 0 1-.611.079c-.267 0-.51-.043-.729-.129a1.61 1.61 0 0 1-.939-.964 2.233 2.233 0 0 1-.132-.793v-.043c0-.271.046-.519.14-.743a1.684 1.684 0 0 1 .95-.939c.216-.088.448-.132.696-.132.304 0 .566.053.785.16.22.108.4.243.543.408.143.164.248.345.315.543.066.197.1.389.1.575v.478h-2.6a.696.696 0 0 0 .26.518.91.91 0 0 0 .272.15.98.98 0 0 0 .325.054c.223 0 .395-.04.514-.118a.704.704 0 0 0 .257-.282l.771.428a1.53 1.53 0 0 1-.178.282 1.252 1.252 0 0 1-.296.268c-.122.081-.27.148-.443.2Zm.203-2.271h-1.67a.798.798 0 0 1 .278-.404.857.857 0 0 1 .557-.175c.23 0 .418.055.568.164.15.11.24.248.268.415Zm4.574 1.393v.857h-1.5a.53.53 0 0 1-.55-.557v-2.129h-1.05v-.857h1.05V8.572h.9v1.457h1.279v.857h-1.279V12.5c0 .143.064.215.193.215h.957Zm8.298 0v.857h-3.128v-.857h1.2v-1.829h-1.115v-.857h2.015v2.686h1.028Zm3.86.857v-.857h-.957c-.129 0-.193-.072-.193-.215v-1.614h1.278v-.857h-1.278V8.572h-.9v1.457h-1.05v.857h1.05v2.129a.53.53 0 0 0 .55.557h1.5Zm7.43-.022a2.017 2.017 0 0 1-.697.122c-.242 0-.475-.04-.696-.122a1.785 1.785 0 0 1-.59-.353 1.665 1.665 0 0 1-.406-.572c-.1-.226-.15-.487-.15-.782v-.086c0-.29.05-.548.15-.775a1.704 1.704 0 0 1 .996-.932c.221-.08.454-.121.697-.121.242 0 .474.04.696.121a1.703 1.703 0 0 1 .996.932c.1.227.15.485.15.775v.086c0 .295-.05.556-.15.782-.1.226-.235.417-.407.572a1.784 1.784 0 0 1-.59.353Zm-.697-.735a1.03 1.03 0 0 1-.364-.065.877.877 0 0 1-.504-.482.997.997 0 0 1-.074-.396v-.143a1 1 0 0 1 .075-.397.878.878 0 0 1 .503-.482 1.03 1.03 0 0 1 .365-.064c.128 0 .25.021.364.064a.878.878 0 0 1 .504.482c.05.117.074.25.074.397v.143c0 .147-.025.28-.075.396a.878.878 0 0 1-.503.482 1.03 1.03 0 0 1-.364.065Zm3.325-1.086v1.843h-.9v-3.543h.9v.528h.128a.94.94 0 0 1 .393-.464c.18-.11.393-.164.636-.164.171 0 .332.027.482.082.15.055.282.14.396.254.115.114.204.26.268.435.064.177.097.386.097.629v2.243h-.9v-2.015c0-.252-.061-.45-.183-.596-.121-.145-.296-.218-.525-.218-.266 0-.465.09-.596.268-.131.179-.197.418-.197.718ZM12.823 10.17a1.677 1.677 0 0 1 1.61.076l9.908 5.77-2.838 2.852-8.68-8.699Zm-.966 1.56c0-.266.06-.524.169-.756l8.678 8.697-8.677 8.717a1.702 1.702 0 0 1-.17-.747V11.73Zm9.647 8.743-8.666 8.707a1.7 1.7 0 0 0 .72.153c.301 0 .602-.072.875-.236l9.91-5.779-2.839-2.845Zm6.6-2.265a1.686 1.686 0 0 1 .828 1.459c0 .598-.306 1.141-.817 1.452l-2.76 1.609-3.052-3.058 3.05-3.065 2.751 1.603Z" fill="#495567"/></svg>